<mxfile host="Electron" modified="2024-01-21T18:34:20.890Z" agent="Mozilla/5.0 (Windows NT 10.0; Win64; x64) AppleWebKit/537.36 (KHTML, like Gecko) draw.io/22.1.21 Chrome/120.0.6099.109 Electron/28.1.0 Safari/537.36" etag="z56HrnLwkM5oOBm7RooI" version="22.1.21" type="device">
  <diagram name="Pagina-1" id="u7obP80k1SkNDivpocj3">
    <mxGraphModel dx="5098" dy="2041" grid="1" gridSize="10" guides="1" tooltips="1" connect="1" arrows="1" fold="1" page="1" pageScale="1" pageWidth="827" pageHeight="1169" math="0" shadow="0">
      <root>
        <mxCell id="0" />
        <mxCell id="1" parent="0" />
        <mxCell id="Ahigw5zZVwEiEi7XChfF-1" value="" style="endArrow=none;html=1;rounded=0;" parent="1" edge="1">
          <mxGeometry width="50" height="50" relative="1" as="geometry">
            <mxPoint x="720" y="510" as="sourcePoint" />
            <mxPoint x="720" y="164.40000000000003" as="targetPoint" />
          </mxGeometry>
        </mxCell>
        <mxCell id="Ahigw5zZVwEiEi7XChfF-2" value="" style="endArrow=none;html=1;rounded=0;" parent="1" edge="1">
          <mxGeometry width="50" height="50" relative="1" as="geometry">
            <mxPoint x="959" y="510" as="sourcePoint" />
            <mxPoint x="960" y="164.40000000000003" as="targetPoint" />
          </mxGeometry>
        </mxCell>
        <mxCell id="Ahigw5zZVwEiEi7XChfF-5" value="&lt;font style=&quot;font-size: 20px;&quot;&gt;Studente&lt;/font&gt;" style="rounded=0;whiteSpace=wrap;html=1;" parent="1" vertex="1">
          <mxGeometry x="660" y="104.40000000000003" width="120" height="60" as="geometry" />
        </mxCell>
        <mxCell id="Ahigw5zZVwEiEi7XChfF-6" value="&lt;font style=&quot;font-size: 20px;&quot;&gt;Segreteria&lt;br&gt;(Server)&lt;br&gt;&lt;/font&gt;" style="rounded=0;whiteSpace=wrap;html=1;" parent="1" vertex="1">
          <mxGeometry x="900" y="104.40000000000003" width="120" height="60" as="geometry" />
        </mxCell>
        <mxCell id="Ahigw5zZVwEiEi7XChfF-8" value="" style="endArrow=classic;html=1;rounded=0;" parent="1" edge="1">
          <mxGeometry width="50" height="50" relative="1" as="geometry">
            <mxPoint x="720" y="224.40000000000003" as="sourcePoint" />
            <mxPoint x="960" y="224.40000000000003" as="targetPoint" />
          </mxGeometry>
        </mxCell>
        <mxCell id="Ahigw5zZVwEiEi7XChfF-10" value="Invio codice identificativo della richiesta:&lt;br&gt;6" style="text;html=1;strokeColor=none;fillColor=none;align=center;verticalAlign=middle;whiteSpace=wrap;rounded=0;" parent="1" vertex="1">
          <mxGeometry x="750" y="189.40000000000003" width="170" height="30" as="geometry" />
        </mxCell>
        <mxCell id="Ahigw5zZVwEiEi7XChfF-11" value="Richiesta di visione appelli disponibili&lt;br&gt;ai quali lo studente non è prenotato" style="text;html=1;strokeColor=none;fillColor=none;align=center;verticalAlign=middle;whiteSpace=wrap;rounded=0;fontSize=20;" parent="1" vertex="1">
          <mxGeometry x="665" y="34.39999999999998" width="355" height="30" as="geometry" />
        </mxCell>
        <mxCell id="Ahigw5zZVwEiEi7XChfF-12" value="" style="endArrow=classic;html=1;rounded=0;" parent="1" edge="1">
          <mxGeometry width="50" height="50" relative="1" as="geometry">
            <mxPoint x="960" y="444.40000000000003" as="sourcePoint" />
            <mxPoint x="720" y="444.40000000000003" as="targetPoint" />
          </mxGeometry>
        </mxCell>
        <mxCell id="Ahigw5zZVwEiEi7XChfF-13" value="Invio appelli disponibili" style="text;html=1;strokeColor=none;fillColor=none;align=center;verticalAlign=middle;whiteSpace=wrap;rounded=0;" parent="1" vertex="1">
          <mxGeometry x="750" y="414.40000000000003" width="170" height="30" as="geometry" />
        </mxCell>
        <mxCell id="Ahigw5zZVwEiEi7XChfF-15" value="DB" style="shape=cylinder3;whiteSpace=wrap;html=1;boundedLbl=1;backgroundOutline=1;size=15;" parent="1" vertex="1">
          <mxGeometry x="1024" y="324.40000000000003" width="60" height="80" as="geometry" />
        </mxCell>
        <mxCell id="Ahigw5zZVwEiEi7XChfF-16" value="" style="shape=flexArrow;endArrow=classic;html=1;rounded=0;" parent="1" edge="1">
          <mxGeometry width="50" height="50" relative="1" as="geometry">
            <mxPoint x="970" y="344.40000000000003" as="sourcePoint" />
            <mxPoint x="1020" y="344.40000000000003" as="targetPoint" />
          </mxGeometry>
        </mxCell>
        <mxCell id="Ahigw5zZVwEiEi7XChfF-17" value="" style="shape=flexArrow;endArrow=none;html=1;rounded=0;startArrow=block;endFill=0;" parent="1" edge="1">
          <mxGeometry width="50" height="50" relative="1" as="geometry">
            <mxPoint x="965" y="384.40000000000003" as="sourcePoint" />
            <mxPoint x="1015" y="384.40000000000003" as="targetPoint" />
          </mxGeometry>
        </mxCell>
        <mxCell id="Ahigw5zZVwEiEi7XChfF-18" value="Query N°6" style="text;html=1;strokeColor=none;fillColor=none;align=center;verticalAlign=middle;whiteSpace=wrap;rounded=0;" parent="1" vertex="1">
          <mxGeometry x="965" y="305.40000000000003" width="60" height="30" as="geometry" />
        </mxCell>
        <mxCell id="Ahigw5zZVwEiEi7XChfF-19" value="Risultato query" style="text;html=1;strokeColor=none;fillColor=none;align=center;verticalAlign=middle;whiteSpace=wrap;rounded=0;" parent="1" vertex="1">
          <mxGeometry x="968" y="400.40000000000003" width="60" height="30" as="geometry" />
        </mxCell>
        <mxCell id="Ahigw5zZVwEiEi7XChfF-21" value="&lt;font style=&quot;font-size: 21px;&quot;&gt;Attesa...&lt;br&gt;&lt;/font&gt;" style="text;html=1;strokeColor=none;fillColor=none;align=center;verticalAlign=middle;whiteSpace=wrap;rounded=0;rotation=-90;" parent="1" vertex="1">
          <mxGeometry x="630" y="355.40000000000003" width="150" height="30" as="geometry" />
        </mxCell>
        <mxCell id="Ahigw5zZVwEiEi7XChfF-22" value="" style="image;points=[];aspect=fixed;html=1;align=center;shadow=0;dashed=0;image=img/lib/allied_telesis/computer_and_terminals/Personal_Computer.svg;" parent="1" vertex="1">
          <mxGeometry x="600" y="474.40000000000003" width="45.6" height="61.800000000000004" as="geometry" />
        </mxCell>
        <mxCell id="Ahigw5zZVwEiEi7XChfF-23" value="" style="shape=flexArrow;endArrow=none;html=1;rounded=0;startArrow=block;endFill=0;" parent="1" edge="1">
          <mxGeometry width="50" height="50" relative="1" as="geometry">
            <mxPoint x="660" y="505.01000000000005" as="sourcePoint" />
            <mxPoint x="710" y="505.01000000000005" as="targetPoint" />
          </mxGeometry>
        </mxCell>
        <mxCell id="Ahigw5zZVwEiEi7XChfF-24" value="Visione appelli" style="text;html=1;strokeColor=none;fillColor=none;align=center;verticalAlign=middle;whiteSpace=wrap;rounded=0;" parent="1" vertex="1">
          <mxGeometry x="640" y="464.40000000000003" width="80" height="30" as="geometry" />
        </mxCell>
        <mxCell id="sndA6R6p5mZ_u4paRLB6-1" value="" style="endArrow=none;html=1;rounded=0;" parent="1" edge="1">
          <mxGeometry width="50" height="50" relative="1" as="geometry">
            <mxPoint x="1280" y="539.1" as="sourcePoint" />
            <mxPoint x="1280" y="169.1" as="targetPoint" />
          </mxGeometry>
        </mxCell>
        <mxCell id="sndA6R6p5mZ_u4paRLB6-2" value="" style="endArrow=none;html=1;rounded=0;" parent="1" edge="1">
          <mxGeometry width="50" height="50" relative="1" as="geometry">
            <mxPoint x="1520" y="539.1" as="sourcePoint" />
            <mxPoint x="1520" y="169.1" as="targetPoint" />
          </mxGeometry>
        </mxCell>
        <mxCell id="sndA6R6p5mZ_u4paRLB6-3" value="&lt;font style=&quot;font-size: 20px;&quot;&gt;Studente&lt;/font&gt;" style="rounded=0;whiteSpace=wrap;html=1;" parent="1" vertex="1">
          <mxGeometry x="1220" y="109.1" width="120" height="60" as="geometry" />
        </mxCell>
        <mxCell id="sndA6R6p5mZ_u4paRLB6-4" value="&lt;font style=&quot;font-size: 20px;&quot;&gt;Segreteria&lt;br&gt;(Server)&lt;br&gt;&lt;/font&gt;" style="rounded=0;whiteSpace=wrap;html=1;" parent="1" vertex="1">
          <mxGeometry x="1460" y="109.1" width="120" height="60" as="geometry" />
        </mxCell>
        <mxCell id="sndA6R6p5mZ_u4paRLB6-5" value="" style="endArrow=classic;html=1;rounded=0;" parent="1" edge="1">
          <mxGeometry width="50" height="50" relative="1" as="geometry">
            <mxPoint x="1280" y="229.1" as="sourcePoint" />
            <mxPoint x="1520" y="229.1" as="targetPoint" />
          </mxGeometry>
        </mxCell>
        <mxCell id="sndA6R6p5mZ_u4paRLB6-6" value="Invio codice identificativo della richiesta:&lt;br&gt;7" style="text;html=1;strokeColor=none;fillColor=none;align=center;verticalAlign=middle;whiteSpace=wrap;rounded=0;" parent="1" vertex="1">
          <mxGeometry x="1310" y="194.1" width="170" height="30" as="geometry" />
        </mxCell>
        <mxCell id="sndA6R6p5mZ_u4paRLB6-7" value="Richiesta di visione appelli ai quali lo studente è prenotato" style="text;html=1;strokeColor=none;fillColor=none;align=center;verticalAlign=middle;whiteSpace=wrap;rounded=0;fontSize=20;" parent="1" vertex="1">
          <mxGeometry x="1228" y="39.10000000000001" width="355" height="30" as="geometry" />
        </mxCell>
        <mxCell id="sndA6R6p5mZ_u4paRLB6-8" value="" style="endArrow=classic;html=1;rounded=0;" parent="1" edge="1">
          <mxGeometry width="50" height="50" relative="1" as="geometry">
            <mxPoint x="1520" y="481.05000000000007" as="sourcePoint" />
            <mxPoint x="1280" y="481.05000000000007" as="targetPoint" />
          </mxGeometry>
        </mxCell>
        <mxCell id="sndA6R6p5mZ_u4paRLB6-9" value="Invio appelli ai quali lo studente è prenotato" style="text;html=1;strokeColor=none;fillColor=none;align=center;verticalAlign=middle;whiteSpace=wrap;rounded=0;" parent="1" vertex="1">
          <mxGeometry x="1310" y="451.05000000000007" width="170" height="30" as="geometry" />
        </mxCell>
        <mxCell id="sndA6R6p5mZ_u4paRLB6-10" value="DB" style="shape=cylinder3;whiteSpace=wrap;html=1;boundedLbl=1;backgroundOutline=1;size=15;" parent="1" vertex="1">
          <mxGeometry x="1583" y="350.1" width="60" height="80" as="geometry" />
        </mxCell>
        <mxCell id="sndA6R6p5mZ_u4paRLB6-11" value="" style="shape=flexArrow;endArrow=classic;html=1;rounded=0;" parent="1" edge="1">
          <mxGeometry width="50" height="50" relative="1" as="geometry">
            <mxPoint x="1529" y="370.1" as="sourcePoint" />
            <mxPoint x="1579" y="370.1" as="targetPoint" />
          </mxGeometry>
        </mxCell>
        <mxCell id="sndA6R6p5mZ_u4paRLB6-12" value="" style="shape=flexArrow;endArrow=none;html=1;rounded=0;startArrow=block;endFill=0;" parent="1" edge="1">
          <mxGeometry width="50" height="50" relative="1" as="geometry">
            <mxPoint x="1524" y="410.1" as="sourcePoint" />
            <mxPoint x="1574" y="410.1" as="targetPoint" />
          </mxGeometry>
        </mxCell>
        <mxCell id="sndA6R6p5mZ_u4paRLB6-13" value="Query N°7" style="text;html=1;strokeColor=none;fillColor=none;align=center;verticalAlign=middle;whiteSpace=wrap;rounded=0;" parent="1" vertex="1">
          <mxGeometry x="1524" y="331.1" width="60" height="30" as="geometry" />
        </mxCell>
        <mxCell id="sndA6R6p5mZ_u4paRLB6-14" value="Risultato query" style="text;html=1;strokeColor=none;fillColor=none;align=center;verticalAlign=middle;whiteSpace=wrap;rounded=0;" parent="1" vertex="1">
          <mxGeometry x="1527" y="426.1" width="60" height="30" as="geometry" />
        </mxCell>
        <mxCell id="sndA6R6p5mZ_u4paRLB6-15" value="&lt;font style=&quot;font-size: 21px;&quot;&gt;Attesa...&lt;br&gt;&lt;/font&gt;" style="text;html=1;strokeColor=none;fillColor=none;align=center;verticalAlign=middle;whiteSpace=wrap;rounded=0;rotation=-90;" parent="1" vertex="1">
          <mxGeometry x="1180" y="377.1" width="150" height="30" as="geometry" />
        </mxCell>
        <mxCell id="sndA6R6p5mZ_u4paRLB6-16" value="" style="image;points=[];aspect=fixed;html=1;align=center;shadow=0;dashed=0;image=img/lib/allied_telesis/computer_and_terminals/Personal_Computer.svg;" parent="1" vertex="1">
          <mxGeometry x="1160" y="511.1" width="45.6" height="61.800000000000004" as="geometry" />
        </mxCell>
        <mxCell id="sndA6R6p5mZ_u4paRLB6-17" value="" style="shape=flexArrow;endArrow=none;html=1;rounded=0;startArrow=block;endFill=0;" parent="1" edge="1">
          <mxGeometry width="50" height="50" relative="1" as="geometry">
            <mxPoint x="1220" y="541.71" as="sourcePoint" />
            <mxPoint x="1270" y="541.71" as="targetPoint" />
          </mxGeometry>
        </mxCell>
        <mxCell id="sndA6R6p5mZ_u4paRLB6-18" value="Visione appelli" style="text;html=1;strokeColor=none;fillColor=none;align=center;verticalAlign=middle;whiteSpace=wrap;rounded=0;" parent="1" vertex="1">
          <mxGeometry x="1198" y="501.1" width="80" height="30" as="geometry" />
        </mxCell>
        <mxCell id="sndA6R6p5mZ_u4paRLB6-19" value="" style="endArrow=none;html=1;rounded=0;" parent="1" edge="1">
          <mxGeometry width="50" height="50" relative="1" as="geometry">
            <mxPoint x="-2261" y="573.9" as="sourcePoint" />
            <mxPoint x="-2259.8" y="183.90000000000003" as="targetPoint" />
          </mxGeometry>
        </mxCell>
        <mxCell id="sndA6R6p5mZ_u4paRLB6-20" value="" style="endArrow=none;html=1;rounded=0;" parent="1" edge="1">
          <mxGeometry width="50" height="50" relative="1" as="geometry">
            <mxPoint x="-2020" y="573.9" as="sourcePoint" />
            <mxPoint x="-2019.8" y="183.90000000000003" as="targetPoint" />
          </mxGeometry>
        </mxCell>
        <mxCell id="sndA6R6p5mZ_u4paRLB6-21" value="&lt;font style=&quot;font-size: 20px;&quot;&gt;Segreteria&lt;br&gt;(Client)&lt;br&gt;&lt;/font&gt;" style="rounded=0;whiteSpace=wrap;html=1;" parent="1" vertex="1">
          <mxGeometry x="-2319.8" y="123.9" width="120" height="60" as="geometry" />
        </mxCell>
        <mxCell id="sndA6R6p5mZ_u4paRLB6-22" value="&lt;font style=&quot;font-size: 20px;&quot;&gt;Server&lt;br&gt;Universitario&lt;br&gt;&lt;/font&gt;" style="rounded=0;whiteSpace=wrap;html=1;" parent="1" vertex="1">
          <mxGeometry x="-2079.8" y="123.9" width="120" height="60" as="geometry" />
        </mxCell>
        <mxCell id="sndA6R6p5mZ_u4paRLB6-23" value="" style="endArrow=classic;html=1;rounded=0;" parent="1" edge="1">
          <mxGeometry width="50" height="50" relative="1" as="geometry">
            <mxPoint x="-2259.8" y="243.9" as="sourcePoint" />
            <mxPoint x="-2019.8" y="243.9" as="targetPoint" />
          </mxGeometry>
        </mxCell>
        <mxCell id="sndA6R6p5mZ_u4paRLB6-24" value="Invio codice identificativo della richiesta:&lt;br&gt;1" style="text;html=1;strokeColor=none;fillColor=none;align=center;verticalAlign=middle;whiteSpace=wrap;rounded=0;" parent="1" vertex="1">
          <mxGeometry x="-2229.8" y="208.9" width="170" height="30" as="geometry" />
        </mxCell>
        <mxCell id="sndA6R6p5mZ_u4paRLB6-25" value="Inserimento nuovo appello da parte della segreteria" style="text;html=1;strokeColor=none;fillColor=none;align=center;verticalAlign=middle;whiteSpace=wrap;rounded=0;fontSize=20;" parent="1" vertex="1">
          <mxGeometry x="-2310.8" y="43.900000000000006" width="355" height="30" as="geometry" />
        </mxCell>
        <mxCell id="sndA6R6p5mZ_u4paRLB6-26" value="" style="endArrow=classic;html=1;rounded=0;" parent="1" edge="1">
          <mxGeometry width="50" height="50" relative="1" as="geometry">
            <mxPoint x="-2019.8" y="477.9" as="sourcePoint" />
            <mxPoint x="-2259.8" y="477.9" as="targetPoint" />
          </mxGeometry>
        </mxCell>
        <mxCell id="sndA6R6p5mZ_u4paRLB6-27" value="Invio esito" style="text;html=1;strokeColor=none;fillColor=none;align=center;verticalAlign=middle;whiteSpace=wrap;rounded=0;" parent="1" vertex="1">
          <mxGeometry x="-2229.8" y="447.9" width="170" height="30" as="geometry" />
        </mxCell>
        <mxCell id="sndA6R6p5mZ_u4paRLB6-28" value="DB" style="shape=cylinder3;whiteSpace=wrap;html=1;boundedLbl=1;backgroundOutline=1;size=15;" parent="1" vertex="1">
          <mxGeometry x="-1955.8" y="350.4" width="60" height="80" as="geometry" />
        </mxCell>
        <mxCell id="sndA6R6p5mZ_u4paRLB6-29" value="" style="shape=flexArrow;endArrow=classic;html=1;rounded=0;" parent="1" edge="1">
          <mxGeometry width="50" height="50" relative="1" as="geometry">
            <mxPoint x="-2009.8" y="370.4" as="sourcePoint" />
            <mxPoint x="-1959.8" y="370.4" as="targetPoint" />
          </mxGeometry>
        </mxCell>
        <mxCell id="sndA6R6p5mZ_u4paRLB6-30" value="" style="shape=flexArrow;endArrow=none;html=1;rounded=0;startArrow=block;endFill=0;" parent="1" edge="1">
          <mxGeometry width="50" height="50" relative="1" as="geometry">
            <mxPoint x="-2014.8" y="410.4" as="sourcePoint" />
            <mxPoint x="-1964.8" y="410.4" as="targetPoint" />
          </mxGeometry>
        </mxCell>
        <mxCell id="sndA6R6p5mZ_u4paRLB6-31" value="Query N°1" style="text;html=1;strokeColor=none;fillColor=none;align=center;verticalAlign=middle;whiteSpace=wrap;rounded=0;" parent="1" vertex="1">
          <mxGeometry x="-2014.8" y="331.4" width="60" height="30" as="geometry" />
        </mxCell>
        <mxCell id="sndA6R6p5mZ_u4paRLB6-32" value="Esito query" style="text;html=1;strokeColor=none;fillColor=none;align=center;verticalAlign=middle;whiteSpace=wrap;rounded=0;" parent="1" vertex="1">
          <mxGeometry x="-2011.8" y="426.4" width="60" height="30" as="geometry" />
        </mxCell>
        <mxCell id="sndA6R6p5mZ_u4paRLB6-33" value="&lt;font style=&quot;font-size: 21px;&quot;&gt;Attesa...&lt;br&gt;&lt;/font&gt;" style="text;html=1;strokeColor=none;fillColor=none;align=center;verticalAlign=middle;whiteSpace=wrap;rounded=0;rotation=-90;" parent="1" vertex="1">
          <mxGeometry x="-2351" y="372.9" width="150" height="30" as="geometry" />
        </mxCell>
        <mxCell id="sndA6R6p5mZ_u4paRLB6-34" value="" style="image;points=[];aspect=fixed;html=1;align=center;shadow=0;dashed=0;image=img/lib/allied_telesis/computer_and_terminals/Personal_Computer.svg;" parent="1" vertex="1">
          <mxGeometry x="-2430.4" y="497.9" width="45.6" height="61.800000000000004" as="geometry" />
        </mxCell>
        <mxCell id="sndA6R6p5mZ_u4paRLB6-35" value="" style="shape=flexArrow;endArrow=none;html=1;rounded=0;startArrow=block;endFill=0;" parent="1" edge="1">
          <mxGeometry width="50" height="50" relative="1" as="geometry">
            <mxPoint x="-2379.8" y="547.9" as="sourcePoint" />
            <mxPoint x="-2279.8" y="567.9" as="targetPoint" />
          </mxGeometry>
        </mxCell>
        <mxCell id="sndA6R6p5mZ_u4paRLB6-36" value="&quot;Appello inserito&quot;" style="text;html=1;strokeColor=none;fillColor=none;align=center;verticalAlign=middle;whiteSpace=wrap;rounded=0;rotation=15;" parent="1" vertex="1">
          <mxGeometry x="-2369.8" y="517.9" width="100" height="30" as="geometry" />
        </mxCell>
        <mxCell id="sndA6R6p5mZ_u4paRLB6-38" value="Segreteria&lt;br&gt;Client" style="ellipse;whiteSpace=wrap;html=1;" parent="1" vertex="1">
          <mxGeometry x="-160" y="-310" width="120" height="80" as="geometry" />
        </mxCell>
        <mxCell id="sndA6R6p5mZ_u4paRLB6-39" value="Segreteria&lt;br&gt;Server" style="ellipse;whiteSpace=wrap;html=1;" parent="1" vertex="1">
          <mxGeometry x="-413" y="-310" width="120" height="80" as="geometry" />
        </mxCell>
        <mxCell id="sndA6R6p5mZ_u4paRLB6-44" value="Processo della segreteria che fungerà da Server per le richieste degli studenti.&lt;br&gt;&lt;br&gt;Tale processo per effettuare le query al DB dovrà comunicare con il Server dell&#39;università" style="text;html=1;strokeColor=none;fillColor=none;align=center;verticalAlign=middle;whiteSpace=wrap;rounded=0;" parent="1" vertex="1">
          <mxGeometry x="-638" y="-310" width="225" height="80" as="geometry" />
        </mxCell>
        <mxCell id="sndA6R6p5mZ_u4paRLB6-45" value="Processo della segreteria la cui funzione sarà quella di client, al fine di inserire/eliminare/aggiornare un appello nel DB" style="text;html=1;strokeColor=none;fillColor=none;align=center;verticalAlign=middle;whiteSpace=wrap;rounded=0;" parent="1" vertex="1">
          <mxGeometry x="-30" y="-305" width="215" height="70" as="geometry" />
        </mxCell>
        <mxCell id="sndA6R6p5mZ_u4paRLB6-46" value="" style="shape=flexArrow;endArrow=none;html=1;rounded=0;startArrow=block;endFill=0;" parent="1" edge="1">
          <mxGeometry width="50" height="50" relative="1" as="geometry">
            <mxPoint x="-2379.8" y="597.9" as="sourcePoint" />
            <mxPoint x="-2279.8" y="577.9" as="targetPoint" />
          </mxGeometry>
        </mxCell>
        <mxCell id="sndA6R6p5mZ_u4paRLB6-47" value="&quot;Errore nell&#39;iserimento&quot;" style="text;html=1;strokeColor=none;fillColor=none;align=center;verticalAlign=middle;whiteSpace=wrap;rounded=0;rotation=-15;" parent="1" vertex="1">
          <mxGeometry x="-2384.8" y="597.9" width="130" height="30" as="geometry" />
        </mxCell>
        <mxCell id="sndA6R6p5mZ_u4paRLB6-48" value="" style="image;points=[];aspect=fixed;html=1;align=center;shadow=0;dashed=0;image=img/lib/allied_telesis/computer_and_terminals/Personal_Computer.svg;" parent="1" vertex="1">
          <mxGeometry x="-2430.4" y="567.9" width="45.6" height="61.800000000000004" as="geometry" />
        </mxCell>
        <mxCell id="sndA6R6p5mZ_u4paRLB6-49" value="Gestione dell&#39;errore" style="text;html=1;strokeColor=none;fillColor=none;align=center;verticalAlign=middle;whiteSpace=wrap;rounded=0;" parent="1" vertex="1">
          <mxGeometry x="-2481" y="627.9" width="60.6" height="30" as="geometry" />
        </mxCell>
        <mxCell id="sndA6R6p5mZ_u4paRLB6-50" value="" style="endArrow=none;html=1;rounded=0;" parent="1" edge="1">
          <mxGeometry width="50" height="50" relative="1" as="geometry">
            <mxPoint x="-992" y="713.9" as="sourcePoint" />
            <mxPoint x="-992" y="183.9" as="targetPoint" />
          </mxGeometry>
        </mxCell>
        <mxCell id="sndA6R6p5mZ_u4paRLB6-51" value="" style="endArrow=none;html=1;rounded=0;" parent="1" edge="1">
          <mxGeometry width="50" height="50" relative="1" as="geometry">
            <mxPoint x="-752" y="713.9" as="sourcePoint" />
            <mxPoint x="-752" y="183.9" as="targetPoint" />
          </mxGeometry>
        </mxCell>
        <mxCell id="sndA6R6p5mZ_u4paRLB6-52" value="&lt;font style=&quot;font-size: 20px;&quot;&gt;Studente&lt;br&gt;&lt;/font&gt;" style="rounded=0;whiteSpace=wrap;html=1;" parent="1" vertex="1">
          <mxGeometry x="-1052" y="123.89999999999999" width="120" height="60" as="geometry" />
        </mxCell>
        <mxCell id="sndA6R6p5mZ_u4paRLB6-53" value="&lt;font style=&quot;font-size: 20px;&quot;&gt;Segretaria&lt;br&gt;(Server)&lt;br&gt;&lt;/font&gt;" style="rounded=0;whiteSpace=wrap;html=1;" parent="1" vertex="1">
          <mxGeometry x="-812" y="123.89999999999999" width="120" height="60" as="geometry" />
        </mxCell>
        <mxCell id="sndA6R6p5mZ_u4paRLB6-54" value="" style="endArrow=classic;html=1;rounded=0;" parent="1" edge="1">
          <mxGeometry width="50" height="50" relative="1" as="geometry">
            <mxPoint x="-992" y="243.9" as="sourcePoint" />
            <mxPoint x="-752" y="243.9" as="targetPoint" />
          </mxGeometry>
        </mxCell>
        <mxCell id="sndA6R6p5mZ_u4paRLB6-55" value="Invio codice identificativo della richiesta:&lt;br&gt;3" style="text;html=1;strokeColor=none;fillColor=none;align=center;verticalAlign=middle;whiteSpace=wrap;rounded=0;" parent="1" vertex="1">
          <mxGeometry x="-962" y="208.9" width="170" height="30" as="geometry" />
        </mxCell>
        <mxCell id="sndA6R6p5mZ_u4paRLB6-56" value="Inserimento nuova prenotazione dello studente da parte della segreteria" style="text;html=1;strokeColor=none;fillColor=none;align=center;verticalAlign=middle;whiteSpace=wrap;rounded=0;fontSize=20;" parent="1" vertex="1">
          <mxGeometry x="-1047" y="43.9" width="355" height="30" as="geometry" />
        </mxCell>
        <mxCell id="sndA6R6p5mZ_u4paRLB6-59" value="DB" style="shape=cylinder3;whiteSpace=wrap;html=1;boundedLbl=1;backgroundOutline=1;size=15;" parent="1" vertex="1">
          <mxGeometry x="-683" y="347.90000000000003" width="60" height="80" as="geometry" />
        </mxCell>
        <mxCell id="sndA6R6p5mZ_u4paRLB6-60" value="" style="shape=flexArrow;endArrow=classic;html=1;rounded=0;" parent="1" edge="1">
          <mxGeometry width="50" height="50" relative="1" as="geometry">
            <mxPoint x="-737" y="367.90000000000003" as="sourcePoint" />
            <mxPoint x="-687" y="367.90000000000003" as="targetPoint" />
          </mxGeometry>
        </mxCell>
        <mxCell id="sndA6R6p5mZ_u4paRLB6-61" value="" style="shape=flexArrow;endArrow=none;html=1;rounded=0;startArrow=block;endFill=0;" parent="1" edge="1">
          <mxGeometry width="50" height="50" relative="1" as="geometry">
            <mxPoint x="-742" y="407.90000000000003" as="sourcePoint" />
            <mxPoint x="-692" y="407.90000000000003" as="targetPoint" />
          </mxGeometry>
        </mxCell>
        <mxCell id="sndA6R6p5mZ_u4paRLB6-62" value="Query N°8" style="text;html=1;strokeColor=none;fillColor=none;align=center;verticalAlign=middle;whiteSpace=wrap;rounded=0;" parent="1" vertex="1">
          <mxGeometry x="-742" y="328.90000000000003" width="60" height="30" as="geometry" />
        </mxCell>
        <mxCell id="sndA6R6p5mZ_u4paRLB6-63" value="Esito query" style="text;html=1;strokeColor=none;fillColor=none;align=center;verticalAlign=middle;whiteSpace=wrap;rounded=0;" parent="1" vertex="1">
          <mxGeometry x="-739" y="423.90000000000003" width="60" height="30" as="geometry" />
        </mxCell>
        <mxCell id="sndA6R6p5mZ_u4paRLB6-65" value="" style="image;points=[];aspect=fixed;html=1;align=center;shadow=0;dashed=0;image=img/lib/allied_telesis/computer_and_terminals/Personal_Computer.svg;" parent="1" vertex="1">
          <mxGeometry x="-1151.4" y="637.9" width="45.6" height="61.800000000000004" as="geometry" />
        </mxCell>
        <mxCell id="sndA6R6p5mZ_u4paRLB6-66" value="" style="shape=flexArrow;endArrow=none;html=1;rounded=0;startArrow=block;endFill=0;" parent="1" edge="1">
          <mxGeometry width="50" height="50" relative="1" as="geometry">
            <mxPoint x="-1100.8" y="687.9" as="sourcePoint" />
            <mxPoint x="-1000.8" y="707.9" as="targetPoint" />
          </mxGeometry>
        </mxCell>
        <mxCell id="sndA6R6p5mZ_u4paRLB6-67" value="&quot;Studente prenotato&quot;" style="text;html=1;strokeColor=none;fillColor=none;align=center;verticalAlign=middle;whiteSpace=wrap;rounded=0;rotation=15;" parent="1" vertex="1">
          <mxGeometry x="-1090.8" y="657.9" width="100" height="30" as="geometry" />
        </mxCell>
        <mxCell id="sndA6R6p5mZ_u4paRLB6-68" value="" style="shape=flexArrow;endArrow=none;html=1;rounded=0;startArrow=block;endFill=0;" parent="1" edge="1">
          <mxGeometry width="50" height="50" relative="1" as="geometry">
            <mxPoint x="-1100.8" y="737.9" as="sourcePoint" />
            <mxPoint x="-1000.8" y="717.9" as="targetPoint" />
          </mxGeometry>
        </mxCell>
        <mxCell id="sndA6R6p5mZ_u4paRLB6-69" value="&quot;Errore nella prenotazione&quot;" style="text;html=1;strokeColor=none;fillColor=none;align=center;verticalAlign=middle;whiteSpace=wrap;rounded=0;rotation=-15;" parent="1" vertex="1">
          <mxGeometry x="-1105.8" y="737.9" width="130" height="30" as="geometry" />
        </mxCell>
        <mxCell id="sndA6R6p5mZ_u4paRLB6-70" value="" style="image;points=[];aspect=fixed;html=1;align=center;shadow=0;dashed=0;image=img/lib/allied_telesis/computer_and_terminals/Personal_Computer.svg;" parent="1" vertex="1">
          <mxGeometry x="-1151.4" y="707.9" width="45.6" height="61.800000000000004" as="geometry" />
        </mxCell>
        <mxCell id="sndA6R6p5mZ_u4paRLB6-71" value="Gestione dell&#39;errore" style="text;html=1;strokeColor=none;fillColor=none;align=center;verticalAlign=middle;whiteSpace=wrap;rounded=0;" parent="1" vertex="1">
          <mxGeometry x="-1202" y="767.9" width="60.6" height="30" as="geometry" />
        </mxCell>
        <mxCell id="sndA6R6p5mZ_u4paRLB6-72" value="" style="endArrow=classic;html=1;rounded=0;" parent="1" edge="1">
          <mxGeometry width="50" height="50" relative="1" as="geometry">
            <mxPoint x="-991" y="303.90000000000003" as="sourcePoint" />
            <mxPoint x="-751" y="303.90000000000003" as="targetPoint" />
          </mxGeometry>
        </mxCell>
        <mxCell id="sndA6R6p5mZ_u4paRLB6-73" value="Invio dati: (&amp;lt;Matricola studente&amp;gt;,&amp;lt;ID Appello&amp;gt;)" style="text;html=1;strokeColor=none;fillColor=none;align=center;verticalAlign=middle;whiteSpace=wrap;rounded=0;" parent="1" vertex="1">
          <mxGeometry x="-961" y="268.90000000000003" width="170" height="30" as="geometry" />
        </mxCell>
        <mxCell id="sndA6R6p5mZ_u4paRLB6-74" value="" style="endArrow=classic;html=1;rounded=0;" parent="1" edge="1">
          <mxGeometry width="50" height="50" relative="1" as="geometry">
            <mxPoint x="-752.5" y="632.9" as="sourcePoint" />
            <mxPoint x="-992.5" y="632.9" as="targetPoint" />
          </mxGeometry>
        </mxCell>
        <mxCell id="sndA6R6p5mZ_u4paRLB6-75" value="Invio esito con numero progressivo" style="text;html=1;strokeColor=none;fillColor=none;align=center;verticalAlign=middle;whiteSpace=wrap;rounded=0;" parent="1" vertex="1">
          <mxGeometry x="-962.5" y="602.9" width="170" height="30" as="geometry" />
        </mxCell>
        <mxCell id="sndA6R6p5mZ_u4paRLB6-76" value="&lt;font style=&quot;font-size: 21px;&quot;&gt;Attesa...&lt;br&gt;&lt;/font&gt;" style="text;html=1;strokeColor=none;fillColor=none;align=center;verticalAlign=middle;whiteSpace=wrap;rounded=0;rotation=-90;" parent="1" vertex="1">
          <mxGeometry x="-1082" y="369.8" width="150" height="30" as="geometry" />
        </mxCell>
        <mxCell id="sndA6R6p5mZ_u4paRLB6-78" value="DB" style="shape=cylinder3;whiteSpace=wrap;html=1;boundedLbl=1;backgroundOutline=1;size=15;" parent="1" vertex="1">
          <mxGeometry x="-680" y="492.90000000000003" width="60" height="80" as="geometry" />
        </mxCell>
        <mxCell id="sndA6R6p5mZ_u4paRLB6-79" value="" style="shape=flexArrow;endArrow=classic;html=1;rounded=0;" parent="1" edge="1">
          <mxGeometry width="50" height="50" relative="1" as="geometry">
            <mxPoint x="-734" y="512.9" as="sourcePoint" />
            <mxPoint x="-684" y="512.9" as="targetPoint" />
          </mxGeometry>
        </mxCell>
        <mxCell id="sndA6R6p5mZ_u4paRLB6-80" value="" style="shape=flexArrow;endArrow=none;html=1;rounded=0;startArrow=block;endFill=0;" parent="1" edge="1">
          <mxGeometry width="50" height="50" relative="1" as="geometry">
            <mxPoint x="-739" y="552.9" as="sourcePoint" />
            <mxPoint x="-689" y="552.9" as="targetPoint" />
          </mxGeometry>
        </mxCell>
        <mxCell id="sndA6R6p5mZ_u4paRLB6-81" value="Query N°3" style="text;html=1;strokeColor=none;fillColor=none;align=center;verticalAlign=middle;whiteSpace=wrap;rounded=0;" parent="1" vertex="1">
          <mxGeometry x="-739" y="473.90000000000003" width="60" height="30" as="geometry" />
        </mxCell>
        <mxCell id="sndA6R6p5mZ_u4paRLB6-82" value="Esito query" style="text;html=1;strokeColor=none;fillColor=none;align=center;verticalAlign=middle;whiteSpace=wrap;rounded=0;" parent="1" vertex="1">
          <mxGeometry x="-736" y="568.9" width="60" height="30" as="geometry" />
        </mxCell>
        <mxCell id="sndA6R6p5mZ_u4paRLB6-83" value="&lt;font style=&quot;font-size: 21px;&quot;&gt;Attesa...&lt;br&gt;&lt;/font&gt;" style="text;html=1;strokeColor=none;fillColor=none;align=center;verticalAlign=middle;whiteSpace=wrap;rounded=0;rotation=-90;" parent="1" vertex="1">
          <mxGeometry x="-1082" y="513.9" width="150" height="30" as="geometry" />
        </mxCell>
        <mxCell id="sndA6R6p5mZ_u4paRLB6-86" value="" style="endArrow=classic;html=1;rounded=0;" parent="1" edge="1">
          <mxGeometry width="50" height="50" relative="1" as="geometry">
            <mxPoint x="1281" y="297.05" as="sourcePoint" />
            <mxPoint x="1521" y="297.05" as="targetPoint" />
          </mxGeometry>
        </mxCell>
        <mxCell id="sndA6R6p5mZ_u4paRLB6-87" value="Invio dati: (&amp;lt;Matricola studente&amp;gt;)" style="text;html=1;strokeColor=none;fillColor=none;align=center;verticalAlign=middle;whiteSpace=wrap;rounded=0;" parent="1" vertex="1">
          <mxGeometry x="1307" y="264.1" width="191" height="30" as="geometry" />
        </mxCell>
        <mxCell id="sndA6R6p5mZ_u4paRLB6-91" value="" style="endArrow=classic;html=1;rounded=0;" parent="1" edge="1">
          <mxGeometry width="50" height="50" relative="1" as="geometry">
            <mxPoint x="-2258.8" y="302.85" as="sourcePoint" />
            <mxPoint x="-2018.8" y="302.85" as="targetPoint" />
          </mxGeometry>
        </mxCell>
        <mxCell id="sndA6R6p5mZ_u4paRLB6-92" value="Invio dati: (&amp;lt;Codice appello&amp;gt;,&amp;lt;Codice esame&amp;gt;,&amp;lt;Data&amp;gt;)" style="text;html=1;strokeColor=none;fillColor=none;align=center;verticalAlign=middle;whiteSpace=wrap;rounded=0;" parent="1" vertex="1">
          <mxGeometry x="-2232.8" y="269.9" width="191" height="30" as="geometry" />
        </mxCell>
        <mxCell id="TbHF3X-9GjPQBp5UOrxq-1" value="" style="endArrow=none;html=1;rounded=0;" parent="1" edge="1">
          <mxGeometry width="50" height="50" relative="1" as="geometry">
            <mxPoint x="-2965" y="530" as="sourcePoint" />
            <mxPoint x="-2964.4" y="166.54999999999998" as="targetPoint" />
          </mxGeometry>
        </mxCell>
        <mxCell id="TbHF3X-9GjPQBp5UOrxq-2" value="" style="endArrow=none;html=1;rounded=0;" parent="1" edge="1">
          <mxGeometry width="50" height="50" relative="1" as="geometry">
            <mxPoint x="-2725" y="530" as="sourcePoint" />
            <mxPoint x="-2724.4" y="166.54999999999998" as="targetPoint" />
          </mxGeometry>
        </mxCell>
        <mxCell id="TbHF3X-9GjPQBp5UOrxq-3" value="&lt;font style=&quot;font-size: 20px;&quot;&gt;Studente&lt;/font&gt;" style="rounded=0;whiteSpace=wrap;html=1;" parent="1" vertex="1">
          <mxGeometry x="-3024.4" y="106.55" width="120" height="60" as="geometry" />
        </mxCell>
        <mxCell id="TbHF3X-9GjPQBp5UOrxq-4" value="&lt;font style=&quot;font-size: 20px;&quot;&gt;Segreteria&lt;br&gt;(Server)&lt;br&gt;&lt;/font&gt;" style="rounded=0;whiteSpace=wrap;html=1;" parent="1" vertex="1">
          <mxGeometry x="-2784.4" y="106.55" width="120" height="60" as="geometry" />
        </mxCell>
        <mxCell id="TbHF3X-9GjPQBp5UOrxq-5" value="" style="endArrow=classic;html=1;rounded=0;" parent="1" edge="1">
          <mxGeometry width="50" height="50" relative="1" as="geometry">
            <mxPoint x="-2964.4" y="226.54999999999998" as="sourcePoint" />
            <mxPoint x="-2724.4" y="226.54999999999998" as="targetPoint" />
          </mxGeometry>
        </mxCell>
        <mxCell id="TbHF3X-9GjPQBp5UOrxq-6" value="Invio codice identificativo della richiesta:&lt;br style=&quot;font-size: 12px;&quot;&gt;0" style="text;html=1;strokeColor=none;fillColor=none;align=center;verticalAlign=middle;whiteSpace=wrap;rounded=0;fontSize=12;" parent="1" vertex="1">
          <mxGeometry x="-2934.4" y="191.54999999999998" width="170" height="30" as="geometry" />
        </mxCell>
        <mxCell id="TbHF3X-9GjPQBp5UOrxq-7" value="Autenticazione studente" style="text;html=1;strokeColor=none;fillColor=none;align=center;verticalAlign=middle;whiteSpace=wrap;rounded=0;fontSize=20;" parent="1" vertex="1">
          <mxGeometry x="-3019.4" y="26.549999999999997" width="355" height="30" as="geometry" />
        </mxCell>
        <mxCell id="TbHF3X-9GjPQBp5UOrxq-8" value="" style="endArrow=classic;html=1;rounded=0;" parent="1" edge="1">
          <mxGeometry width="50" height="50" relative="1" as="geometry">
            <mxPoint x="-2724.4" y="466.54999999999995" as="sourcePoint" />
            <mxPoint x="-2964.4" y="466.54999999999995" as="targetPoint" />
          </mxGeometry>
        </mxCell>
        <mxCell id="TbHF3X-9GjPQBp5UOrxq-9" value="Invio risultato query" style="text;html=1;strokeColor=none;fillColor=none;align=center;verticalAlign=middle;whiteSpace=wrap;rounded=0;" parent="1" vertex="1">
          <mxGeometry x="-2927.9" y="431.09999999999997" width="170" height="30" as="geometry" />
        </mxCell>
        <mxCell id="TbHF3X-9GjPQBp5UOrxq-10" value="DB" style="shape=cylinder3;whiteSpace=wrap;html=1;boundedLbl=1;backgroundOutline=1;size=15;" parent="1" vertex="1">
          <mxGeometry x="-2660.4" y="336.54999999999995" width="60" height="80" as="geometry" />
        </mxCell>
        <mxCell id="TbHF3X-9GjPQBp5UOrxq-11" value="" style="shape=flexArrow;endArrow=classic;html=1;rounded=0;" parent="1" edge="1">
          <mxGeometry width="50" height="50" relative="1" as="geometry">
            <mxPoint x="-2714.4" y="356.54999999999995" as="sourcePoint" />
            <mxPoint x="-2664.4" y="356.54999999999995" as="targetPoint" />
          </mxGeometry>
        </mxCell>
        <mxCell id="TbHF3X-9GjPQBp5UOrxq-12" value="" style="shape=flexArrow;endArrow=none;html=1;rounded=0;startArrow=block;endFill=0;" parent="1" edge="1">
          <mxGeometry width="50" height="50" relative="1" as="geometry">
            <mxPoint x="-2719.4" y="396.54999999999995" as="sourcePoint" />
            <mxPoint x="-2669.4" y="396.54999999999995" as="targetPoint" />
          </mxGeometry>
        </mxCell>
        <mxCell id="TbHF3X-9GjPQBp5UOrxq-13" value="Query N°0" style="text;html=1;strokeColor=none;fillColor=none;align=center;verticalAlign=middle;whiteSpace=wrap;rounded=0;" parent="1" vertex="1">
          <mxGeometry x="-2719.4" y="317.54999999999995" width="60" height="30" as="geometry" />
        </mxCell>
        <mxCell id="TbHF3X-9GjPQBp5UOrxq-14" value="Risultato query" style="text;html=1;strokeColor=none;fillColor=none;align=center;verticalAlign=middle;whiteSpace=wrap;rounded=0;" parent="1" vertex="1">
          <mxGeometry x="-2716.4" y="412.54999999999995" width="60" height="30" as="geometry" />
        </mxCell>
        <mxCell id="TbHF3X-9GjPQBp5UOrxq-15" value="&lt;font style=&quot;font-size: 21px;&quot;&gt;Attesa...&lt;br&gt;&lt;/font&gt;" style="text;html=1;strokeColor=none;fillColor=none;align=center;verticalAlign=middle;whiteSpace=wrap;rounded=0;rotation=-90;" parent="1" vertex="1">
          <mxGeometry x="-3054.4" y="367.54999999999995" width="150" height="30" as="geometry" />
        </mxCell>
        <mxCell id="TbHF3X-9GjPQBp5UOrxq-16" value="" style="image;points=[];aspect=fixed;html=1;align=center;shadow=0;dashed=0;image=img/lib/allied_telesis/computer_and_terminals/Personal_Computer.svg;" parent="1" vertex="1">
          <mxGeometry x="-3100" y="494.75" width="45.6" height="61.800000000000004" as="geometry" />
        </mxCell>
        <mxCell id="TbHF3X-9GjPQBp5UOrxq-17" value="" style="shape=flexArrow;endArrow=none;html=1;rounded=0;startArrow=block;endFill=0;" parent="1" edge="1">
          <mxGeometry width="50" height="50" relative="1" as="geometry">
            <mxPoint x="-3034.4" y="527.55" as="sourcePoint" />
            <mxPoint x="-2974.4" y="527.16" as="targetPoint" />
          </mxGeometry>
        </mxCell>
        <mxCell id="TbHF3X-9GjPQBp5UOrxq-18" value="Risulato query" style="text;html=1;strokeColor=none;fillColor=none;align=center;verticalAlign=middle;whiteSpace=wrap;rounded=0;" parent="1" vertex="1">
          <mxGeometry x="-3044.4" y="486.54999999999995" width="80" height="30" as="geometry" />
        </mxCell>
        <mxCell id="GOCPtVC51ecerdmbGcWH-1" value="" style="endArrow=none;html=1;rounded=0;" edge="1" parent="1">
          <mxGeometry width="50" height="50" relative="1" as="geometry">
            <mxPoint x="-1620" y="584.0500000000001" as="sourcePoint" />
            <mxPoint x="-1618.8" y="194.04999999999998" as="targetPoint" />
          </mxGeometry>
        </mxCell>
        <mxCell id="GOCPtVC51ecerdmbGcWH-2" value="" style="endArrow=none;html=1;rounded=0;" edge="1" parent="1">
          <mxGeometry width="50" height="50" relative="1" as="geometry">
            <mxPoint x="-1379" y="584.0500000000001" as="sourcePoint" />
            <mxPoint x="-1378.8" y="194.04999999999998" as="targetPoint" />
          </mxGeometry>
        </mxCell>
        <mxCell id="GOCPtVC51ecerdmbGcWH-3" value="&lt;font style=&quot;font-size: 20px;&quot;&gt;Segreteria&lt;br&gt;(Client)&lt;br&gt;&lt;/font&gt;" style="rounded=0;whiteSpace=wrap;html=1;" vertex="1" parent="1">
          <mxGeometry x="-1678.8" y="134.05" width="120" height="60" as="geometry" />
        </mxCell>
        <mxCell id="GOCPtVC51ecerdmbGcWH-4" value="&lt;font style=&quot;font-size: 20px;&quot;&gt;Server&lt;br&gt;Universitario&lt;br&gt;&lt;/font&gt;" style="rounded=0;whiteSpace=wrap;html=1;" vertex="1" parent="1">
          <mxGeometry x="-1438.8" y="134.05" width="120" height="60" as="geometry" />
        </mxCell>
        <mxCell id="GOCPtVC51ecerdmbGcWH-5" value="" style="endArrow=classic;html=1;rounded=0;" edge="1" parent="1">
          <mxGeometry width="50" height="50" relative="1" as="geometry">
            <mxPoint x="-1618.8" y="254.04999999999998" as="sourcePoint" />
            <mxPoint x="-1378.8" y="254.04999999999998" as="targetPoint" />
          </mxGeometry>
        </mxCell>
        <mxCell id="GOCPtVC51ecerdmbGcWH-6" value="Invio codice identificativo della richiesta:&lt;br&gt;2" style="text;html=1;strokeColor=none;fillColor=none;align=center;verticalAlign=middle;whiteSpace=wrap;rounded=0;" vertex="1" parent="1">
          <mxGeometry x="-1588.8" y="219.04999999999998" width="170" height="30" as="geometry" />
        </mxCell>
        <mxCell id="GOCPtVC51ecerdmbGcWH-7" value="Inserimento nuovo esame da parte della segreteria" style="text;html=1;strokeColor=none;fillColor=none;align=center;verticalAlign=middle;whiteSpace=wrap;rounded=0;fontSize=20;" vertex="1" parent="1">
          <mxGeometry x="-1669.8" y="54.05" width="355" height="30" as="geometry" />
        </mxCell>
        <mxCell id="GOCPtVC51ecerdmbGcWH-8" value="" style="endArrow=classic;html=1;rounded=0;" edge="1" parent="1">
          <mxGeometry width="50" height="50" relative="1" as="geometry">
            <mxPoint x="-1378.8" y="488.05" as="sourcePoint" />
            <mxPoint x="-1618.8" y="488.05" as="targetPoint" />
          </mxGeometry>
        </mxCell>
        <mxCell id="GOCPtVC51ecerdmbGcWH-9" value="Invio esito" style="text;html=1;strokeColor=none;fillColor=none;align=center;verticalAlign=middle;whiteSpace=wrap;rounded=0;" vertex="1" parent="1">
          <mxGeometry x="-1588.8" y="458.05" width="170" height="30" as="geometry" />
        </mxCell>
        <mxCell id="GOCPtVC51ecerdmbGcWH-10" value="DB" style="shape=cylinder3;whiteSpace=wrap;html=1;boundedLbl=1;backgroundOutline=1;size=15;" vertex="1" parent="1">
          <mxGeometry x="-1314.8" y="360.55" width="60" height="80" as="geometry" />
        </mxCell>
        <mxCell id="GOCPtVC51ecerdmbGcWH-11" value="" style="shape=flexArrow;endArrow=classic;html=1;rounded=0;" edge="1" parent="1">
          <mxGeometry width="50" height="50" relative="1" as="geometry">
            <mxPoint x="-1368.8" y="380.55" as="sourcePoint" />
            <mxPoint x="-1318.8" y="380.55" as="targetPoint" />
          </mxGeometry>
        </mxCell>
        <mxCell id="GOCPtVC51ecerdmbGcWH-12" value="" style="shape=flexArrow;endArrow=none;html=1;rounded=0;startArrow=block;endFill=0;" edge="1" parent="1">
          <mxGeometry width="50" height="50" relative="1" as="geometry">
            <mxPoint x="-1373.8" y="420.55" as="sourcePoint" />
            <mxPoint x="-1323.8" y="420.55" as="targetPoint" />
          </mxGeometry>
        </mxCell>
        <mxCell id="GOCPtVC51ecerdmbGcWH-13" value="Query N°2" style="text;html=1;strokeColor=none;fillColor=none;align=center;verticalAlign=middle;whiteSpace=wrap;rounded=0;" vertex="1" parent="1">
          <mxGeometry x="-1373.8" y="341.55" width="60" height="30" as="geometry" />
        </mxCell>
        <mxCell id="GOCPtVC51ecerdmbGcWH-14" value="Esito query" style="text;html=1;strokeColor=none;fillColor=none;align=center;verticalAlign=middle;whiteSpace=wrap;rounded=0;" vertex="1" parent="1">
          <mxGeometry x="-1370.8" y="436.55" width="60" height="30" as="geometry" />
        </mxCell>
        <mxCell id="GOCPtVC51ecerdmbGcWH-15" value="&lt;font style=&quot;font-size: 21px;&quot;&gt;Attesa...&lt;br&gt;&lt;/font&gt;" style="text;html=1;strokeColor=none;fillColor=none;align=center;verticalAlign=middle;whiteSpace=wrap;rounded=0;rotation=-90;" vertex="1" parent="1">
          <mxGeometry x="-1710" y="383.05" width="150" height="30" as="geometry" />
        </mxCell>
        <mxCell id="GOCPtVC51ecerdmbGcWH-16" value="" style="image;points=[];aspect=fixed;html=1;align=center;shadow=0;dashed=0;image=img/lib/allied_telesis/computer_and_terminals/Personal_Computer.svg;" vertex="1" parent="1">
          <mxGeometry x="-1789.4" y="508.05" width="45.6" height="61.800000000000004" as="geometry" />
        </mxCell>
        <mxCell id="GOCPtVC51ecerdmbGcWH-17" value="" style="shape=flexArrow;endArrow=none;html=1;rounded=0;startArrow=block;endFill=0;" edge="1" parent="1">
          <mxGeometry width="50" height="50" relative="1" as="geometry">
            <mxPoint x="-1738.8" y="558.0500000000001" as="sourcePoint" />
            <mxPoint x="-1638.8" y="578.0500000000001" as="targetPoint" />
          </mxGeometry>
        </mxCell>
        <mxCell id="GOCPtVC51ecerdmbGcWH-18" value="&quot;Esame inserito&quot;" style="text;html=1;strokeColor=none;fillColor=none;align=center;verticalAlign=middle;whiteSpace=wrap;rounded=0;rotation=15;" vertex="1" parent="1">
          <mxGeometry x="-1728.8" y="528.05" width="100" height="30" as="geometry" />
        </mxCell>
        <mxCell id="GOCPtVC51ecerdmbGcWH-19" value="" style="shape=flexArrow;endArrow=none;html=1;rounded=0;startArrow=block;endFill=0;" edge="1" parent="1">
          <mxGeometry width="50" height="50" relative="1" as="geometry">
            <mxPoint x="-1738.8" y="608.0500000000001" as="sourcePoint" />
            <mxPoint x="-1638.8" y="588.0500000000001" as="targetPoint" />
          </mxGeometry>
        </mxCell>
        <mxCell id="GOCPtVC51ecerdmbGcWH-20" value="&quot;Errore nell&#39;iserimento&quot;" style="text;html=1;strokeColor=none;fillColor=none;align=center;verticalAlign=middle;whiteSpace=wrap;rounded=0;rotation=-15;" vertex="1" parent="1">
          <mxGeometry x="-1743.8" y="608.0500000000001" width="130" height="30" as="geometry" />
        </mxCell>
        <mxCell id="GOCPtVC51ecerdmbGcWH-21" value="" style="image;points=[];aspect=fixed;html=1;align=center;shadow=0;dashed=0;image=img/lib/allied_telesis/computer_and_terminals/Personal_Computer.svg;" vertex="1" parent="1">
          <mxGeometry x="-1789.4" y="578.0500000000001" width="45.6" height="61.800000000000004" as="geometry" />
        </mxCell>
        <mxCell id="GOCPtVC51ecerdmbGcWH-22" value="Gestione dell&#39;errore" style="text;html=1;strokeColor=none;fillColor=none;align=center;verticalAlign=middle;whiteSpace=wrap;rounded=0;" vertex="1" parent="1">
          <mxGeometry x="-1840" y="638.0500000000001" width="60.6" height="30" as="geometry" />
        </mxCell>
        <mxCell id="GOCPtVC51ecerdmbGcWH-23" value="" style="endArrow=classic;html=1;rounded=0;" edge="1" parent="1">
          <mxGeometry width="50" height="50" relative="1" as="geometry">
            <mxPoint x="-1617.8" y="333.00000000000006" as="sourcePoint" />
            <mxPoint x="-1377.8" y="333.00000000000006" as="targetPoint" />
          </mxGeometry>
        </mxCell>
        <mxCell id="GOCPtVC51ecerdmbGcWH-24" value="Invio dati: (&amp;lt;Codice esame&amp;gt;,&amp;lt;Codice corso&amp;gt;,&amp;lt;Tipo&amp;gt;, &amp;lt;Modalita&amp;gt;, &amp;lt;Descrizione&amp;gt;)" style="text;html=1;strokeColor=none;fillColor=none;align=center;verticalAlign=middle;whiteSpace=wrap;rounded=0;" vertex="1" parent="1">
          <mxGeometry x="-1603.95" y="292.05" width="214.7" height="30" as="geometry" />
        </mxCell>
        <mxCell id="GOCPtVC51ecerdmbGcWH-25" value="" style="endArrow=none;html=1;rounded=0;" edge="1" parent="1">
          <mxGeometry width="50" height="50" relative="1" as="geometry">
            <mxPoint x="-440" y="502.1" as="sourcePoint" />
            <mxPoint x="-440" y="212.1" as="targetPoint" />
          </mxGeometry>
        </mxCell>
        <mxCell id="GOCPtVC51ecerdmbGcWH-26" value="" style="endArrow=none;html=1;rounded=0;" edge="1" parent="1">
          <mxGeometry width="50" height="50" relative="1" as="geometry">
            <mxPoint x="-200" y="502.1" as="sourcePoint" />
            <mxPoint x="-200" y="212.1" as="targetPoint" />
          </mxGeometry>
        </mxCell>
        <mxCell id="GOCPtVC51ecerdmbGcWH-27" value="&lt;font style=&quot;font-size: 20px;&quot;&gt;Studente&lt;/font&gt;" style="rounded=0;whiteSpace=wrap;html=1;" vertex="1" parent="1">
          <mxGeometry x="-500" y="152.1" width="120" height="60" as="geometry" />
        </mxCell>
        <mxCell id="GOCPtVC51ecerdmbGcWH-28" value="&lt;font style=&quot;font-size: 20px;&quot;&gt;Segreteria&lt;br&gt;(Server)&lt;br&gt;&lt;/font&gt;" style="rounded=0;whiteSpace=wrap;html=1;" vertex="1" parent="1">
          <mxGeometry x="-260" y="152.1" width="120" height="60" as="geometry" />
        </mxCell>
        <mxCell id="GOCPtVC51ecerdmbGcWH-29" value="" style="endArrow=classic;html=1;rounded=0;" edge="1" parent="1">
          <mxGeometry width="50" height="50" relative="1" as="geometry">
            <mxPoint x="-440" y="272.1" as="sourcePoint" />
            <mxPoint x="-200" y="272.1" as="targetPoint" />
          </mxGeometry>
        </mxCell>
        <mxCell id="GOCPtVC51ecerdmbGcWH-30" value="Invio codice identificativo della richiesta:&lt;br&gt;4" style="text;html=1;strokeColor=none;fillColor=none;align=center;verticalAlign=middle;whiteSpace=wrap;rounded=0;" vertex="1" parent="1">
          <mxGeometry x="-410" y="237.1" width="170" height="30" as="geometry" />
        </mxCell>
        <mxCell id="GOCPtVC51ecerdmbGcWH-31" value="Richiesta di visione corsi" style="text;html=1;strokeColor=none;fillColor=none;align=center;verticalAlign=middle;whiteSpace=wrap;rounded=0;fontSize=20;" vertex="1" parent="1">
          <mxGeometry x="-495" y="82.1" width="355" height="30" as="geometry" />
        </mxCell>
        <mxCell id="GOCPtVC51ecerdmbGcWH-32" value="" style="endArrow=classic;html=1;rounded=0;" edge="1" parent="1">
          <mxGeometry width="50" height="50" relative="1" as="geometry">
            <mxPoint x="-200" y="422.1" as="sourcePoint" />
            <mxPoint x="-440" y="422.1" as="targetPoint" />
          </mxGeometry>
        </mxCell>
        <mxCell id="GOCPtVC51ecerdmbGcWH-33" value="Invio corsi" style="text;html=1;strokeColor=none;fillColor=none;align=center;verticalAlign=middle;whiteSpace=wrap;rounded=0;" vertex="1" parent="1">
          <mxGeometry x="-410" y="392.1" width="170" height="30" as="geometry" />
        </mxCell>
        <mxCell id="GOCPtVC51ecerdmbGcWH-34" value="DB" style="shape=cylinder3;whiteSpace=wrap;html=1;boundedLbl=1;backgroundOutline=1;size=15;" vertex="1" parent="1">
          <mxGeometry x="-136" y="312.1" width="60" height="80" as="geometry" />
        </mxCell>
        <mxCell id="GOCPtVC51ecerdmbGcWH-35" value="" style="shape=flexArrow;endArrow=classic;html=1;rounded=0;" edge="1" parent="1">
          <mxGeometry width="50" height="50" relative="1" as="geometry">
            <mxPoint x="-190" y="332.1" as="sourcePoint" />
            <mxPoint x="-140" y="332.1" as="targetPoint" />
          </mxGeometry>
        </mxCell>
        <mxCell id="GOCPtVC51ecerdmbGcWH-36" value="" style="shape=flexArrow;endArrow=none;html=1;rounded=0;startArrow=block;endFill=0;" edge="1" parent="1">
          <mxGeometry width="50" height="50" relative="1" as="geometry">
            <mxPoint x="-195" y="372.1" as="sourcePoint" />
            <mxPoint x="-145" y="372.1" as="targetPoint" />
          </mxGeometry>
        </mxCell>
        <mxCell id="GOCPtVC51ecerdmbGcWH-37" value="Query N°4" style="text;html=1;strokeColor=none;fillColor=none;align=center;verticalAlign=middle;whiteSpace=wrap;rounded=0;" vertex="1" parent="1">
          <mxGeometry x="-195" y="293.1" width="60" height="30" as="geometry" />
        </mxCell>
        <mxCell id="GOCPtVC51ecerdmbGcWH-38" value="Risultato query" style="text;html=1;strokeColor=none;fillColor=none;align=center;verticalAlign=middle;whiteSpace=wrap;rounded=0;" vertex="1" parent="1">
          <mxGeometry x="-192" y="388.1" width="60" height="30" as="geometry" />
        </mxCell>
        <mxCell id="GOCPtVC51ecerdmbGcWH-39" value="&lt;font style=&quot;font-size: 21px;&quot;&gt;Attesa...&lt;br&gt;&lt;/font&gt;" style="text;html=1;strokeColor=none;fillColor=none;align=center;verticalAlign=middle;whiteSpace=wrap;rounded=0;rotation=-90;" vertex="1" parent="1">
          <mxGeometry x="-530" y="323.1" width="150" height="30" as="geometry" />
        </mxCell>
        <mxCell id="GOCPtVC51ecerdmbGcWH-40" value="" style="image;points=[];aspect=fixed;html=1;align=center;shadow=0;dashed=0;image=img/lib/allied_telesis/computer_and_terminals/Personal_Computer.svg;" vertex="1" parent="1">
          <mxGeometry x="-560" y="452.1" width="45.6" height="61.800000000000004" as="geometry" />
        </mxCell>
        <mxCell id="GOCPtVC51ecerdmbGcWH-41" value="" style="shape=flexArrow;endArrow=none;html=1;rounded=0;startArrow=block;endFill=0;" edge="1" parent="1">
          <mxGeometry width="50" height="50" relative="1" as="geometry">
            <mxPoint x="-500" y="482.71000000000004" as="sourcePoint" />
            <mxPoint x="-450" y="482.71000000000004" as="targetPoint" />
          </mxGeometry>
        </mxCell>
        <mxCell id="GOCPtVC51ecerdmbGcWH-42" value="Visione corsi" style="text;html=1;strokeColor=none;fillColor=none;align=center;verticalAlign=middle;whiteSpace=wrap;rounded=0;" vertex="1" parent="1">
          <mxGeometry x="-520" y="442.1" width="80" height="30" as="geometry" />
        </mxCell>
        <mxCell id="GOCPtVC51ecerdmbGcWH-43" value="" style="endArrow=none;html=1;rounded=0;" edge="1" parent="1">
          <mxGeometry width="50" height="50" relative="1" as="geometry">
            <mxPoint x="120" y="510" as="sourcePoint" />
            <mxPoint x="120" y="166.20000000000007" as="targetPoint" />
          </mxGeometry>
        </mxCell>
        <mxCell id="GOCPtVC51ecerdmbGcWH-44" value="" style="endArrow=none;html=1;rounded=0;" edge="1" parent="1">
          <mxGeometry width="50" height="50" relative="1" as="geometry">
            <mxPoint x="360" y="510" as="sourcePoint" />
            <mxPoint x="360" y="166.20000000000007" as="targetPoint" />
          </mxGeometry>
        </mxCell>
        <mxCell id="GOCPtVC51ecerdmbGcWH-45" value="&lt;font style=&quot;font-size: 20px;&quot;&gt;Studente&lt;/font&gt;" style="rounded=0;whiteSpace=wrap;html=1;" vertex="1" parent="1">
          <mxGeometry x="60" y="106.20000000000007" width="120" height="60" as="geometry" />
        </mxCell>
        <mxCell id="GOCPtVC51ecerdmbGcWH-46" value="&lt;font style=&quot;font-size: 20px;&quot;&gt;Segreteria&lt;br&gt;(Server)&lt;br&gt;&lt;/font&gt;" style="rounded=0;whiteSpace=wrap;html=1;" vertex="1" parent="1">
          <mxGeometry x="300" y="106.20000000000007" width="120" height="60" as="geometry" />
        </mxCell>
        <mxCell id="GOCPtVC51ecerdmbGcWH-47" value="" style="endArrow=classic;html=1;rounded=0;" edge="1" parent="1">
          <mxGeometry width="50" height="50" relative="1" as="geometry">
            <mxPoint x="120" y="226.20000000000007" as="sourcePoint" />
            <mxPoint x="360" y="226.20000000000007" as="targetPoint" />
          </mxGeometry>
        </mxCell>
        <mxCell id="GOCPtVC51ecerdmbGcWH-48" value="Invio codice identificativo della richiesta:&lt;br&gt;5" style="text;html=1;strokeColor=none;fillColor=none;align=center;verticalAlign=middle;whiteSpace=wrap;rounded=0;" vertex="1" parent="1">
          <mxGeometry x="150" y="191.20000000000007" width="170" height="30" as="geometry" />
        </mxCell>
        <mxCell id="GOCPtVC51ecerdmbGcWH-49" value="Richiesta di visione esami di un determinato corso" style="text;html=1;strokeColor=none;fillColor=none;align=center;verticalAlign=middle;whiteSpace=wrap;rounded=0;fontSize=20;" vertex="1" parent="1">
          <mxGeometry x="65" y="36.200000000000024" width="355" height="30" as="geometry" />
        </mxCell>
        <mxCell id="GOCPtVC51ecerdmbGcWH-50" value="" style="endArrow=classic;html=1;rounded=0;" edge="1" parent="1">
          <mxGeometry width="50" height="50" relative="1" as="geometry">
            <mxPoint x="360" y="446.2000000000001" as="sourcePoint" />
            <mxPoint x="120" y="446.2000000000001" as="targetPoint" />
          </mxGeometry>
        </mxCell>
        <mxCell id="GOCPtVC51ecerdmbGcWH-51" value="Invio esami disponibili" style="text;html=1;strokeColor=none;fillColor=none;align=center;verticalAlign=middle;whiteSpace=wrap;rounded=0;" vertex="1" parent="1">
          <mxGeometry x="150" y="416.2000000000001" width="170" height="30" as="geometry" />
        </mxCell>
        <mxCell id="GOCPtVC51ecerdmbGcWH-52" value="DB" style="shape=cylinder3;whiteSpace=wrap;html=1;boundedLbl=1;backgroundOutline=1;size=15;" vertex="1" parent="1">
          <mxGeometry x="424" y="326.2000000000001" width="60" height="80" as="geometry" />
        </mxCell>
        <mxCell id="GOCPtVC51ecerdmbGcWH-53" value="" style="shape=flexArrow;endArrow=classic;html=1;rounded=0;" edge="1" parent="1">
          <mxGeometry width="50" height="50" relative="1" as="geometry">
            <mxPoint x="370" y="346.2000000000001" as="sourcePoint" />
            <mxPoint x="420" y="346.2000000000001" as="targetPoint" />
          </mxGeometry>
        </mxCell>
        <mxCell id="GOCPtVC51ecerdmbGcWH-54" value="" style="shape=flexArrow;endArrow=none;html=1;rounded=0;startArrow=block;endFill=0;" edge="1" parent="1">
          <mxGeometry width="50" height="50" relative="1" as="geometry">
            <mxPoint x="365" y="386.2000000000001" as="sourcePoint" />
            <mxPoint x="415" y="386.2000000000001" as="targetPoint" />
          </mxGeometry>
        </mxCell>
        <mxCell id="GOCPtVC51ecerdmbGcWH-55" value="Query N°5" style="text;html=1;strokeColor=none;fillColor=none;align=center;verticalAlign=middle;whiteSpace=wrap;rounded=0;" vertex="1" parent="1">
          <mxGeometry x="365" y="307.20000000000005" width="60" height="30" as="geometry" />
        </mxCell>
        <mxCell id="GOCPtVC51ecerdmbGcWH-56" value="Risultato query" style="text;html=1;strokeColor=none;fillColor=none;align=center;verticalAlign=middle;whiteSpace=wrap;rounded=0;" vertex="1" parent="1">
          <mxGeometry x="368" y="402.2000000000001" width="60" height="30" as="geometry" />
        </mxCell>
        <mxCell id="GOCPtVC51ecerdmbGcWH-57" value="&lt;font style=&quot;font-size: 21px;&quot;&gt;Attesa...&lt;br&gt;&lt;/font&gt;" style="text;html=1;strokeColor=none;fillColor=none;align=center;verticalAlign=middle;whiteSpace=wrap;rounded=0;rotation=-90;" vertex="1" parent="1">
          <mxGeometry x="30" y="357.2000000000001" width="150" height="30" as="geometry" />
        </mxCell>
        <mxCell id="GOCPtVC51ecerdmbGcWH-58" value="" style="image;points=[];aspect=fixed;html=1;align=center;shadow=0;dashed=0;image=img/lib/allied_telesis/computer_and_terminals/Personal_Computer.svg;" vertex="1" parent="1">
          <mxGeometry y="476.2000000000001" width="45.6" height="61.800000000000004" as="geometry" />
        </mxCell>
        <mxCell id="GOCPtVC51ecerdmbGcWH-59" value="" style="shape=flexArrow;endArrow=none;html=1;rounded=0;startArrow=block;endFill=0;" edge="1" parent="1">
          <mxGeometry width="50" height="50" relative="1" as="geometry">
            <mxPoint x="60" y="506.8100000000001" as="sourcePoint" />
            <mxPoint x="110" y="506.8100000000001" as="targetPoint" />
          </mxGeometry>
        </mxCell>
        <mxCell id="GOCPtVC51ecerdmbGcWH-60" value="Visione esami" style="text;html=1;strokeColor=none;fillColor=none;align=center;verticalAlign=middle;whiteSpace=wrap;rounded=0;" vertex="1" parent="1">
          <mxGeometry x="40" y="466.2000000000001" width="80" height="30" as="geometry" />
        </mxCell>
        <mxCell id="GOCPtVC51ecerdmbGcWH-61" value="" style="endArrow=classic;html=1;rounded=0;" edge="1" parent="1">
          <mxGeometry width="50" height="50" relative="1" as="geometry">
            <mxPoint x="-2964.4" y="295.88" as="sourcePoint" />
            <mxPoint x="-2724" y="296" as="targetPoint" />
          </mxGeometry>
        </mxCell>
        <mxCell id="GOCPtVC51ecerdmbGcWH-62" value="Invio dati: (&amp;lt;Matricola studente&amp;gt;)" style="text;html=1;strokeColor=none;fillColor=none;align=center;verticalAlign=middle;whiteSpace=wrap;rounded=0;" vertex="1" parent="1">
          <mxGeometry x="-2938.4" y="262.93" width="191" height="30" as="geometry" />
        </mxCell>
        <mxCell id="GOCPtVC51ecerdmbGcWH-63" value="" style="endArrow=classic;html=1;rounded=0;" edge="1" parent="1">
          <mxGeometry width="50" height="50" relative="1" as="geometry">
            <mxPoint x="121" y="290.13" as="sourcePoint" />
            <mxPoint x="361" y="290.13" as="targetPoint" />
          </mxGeometry>
        </mxCell>
        <mxCell id="GOCPtVC51ecerdmbGcWH-64" value="Invio dati: (&amp;lt;Codice corso&amp;gt;)" style="text;html=1;strokeColor=none;fillColor=none;align=center;verticalAlign=middle;whiteSpace=wrap;rounded=0;" vertex="1" parent="1">
          <mxGeometry x="147" y="257.18" width="191" height="30" as="geometry" />
        </mxCell>
        <mxCell id="GOCPtVC51ecerdmbGcWH-65" value="" style="endArrow=classic;html=1;rounded=0;" edge="1" parent="1">
          <mxGeometry width="50" height="50" relative="1" as="geometry">
            <mxPoint x="722.5" y="286.28999999999996" as="sourcePoint" />
            <mxPoint x="962.5" y="286.28999999999996" as="targetPoint" />
          </mxGeometry>
        </mxCell>
        <mxCell id="GOCPtVC51ecerdmbGcWH-66" value="Invio dati: (&amp;lt;Matricola studente&amp;gt;, &amp;lt;Codice corso&amp;gt;)" style="text;html=1;strokeColor=none;fillColor=none;align=center;verticalAlign=middle;whiteSpace=wrap;rounded=0;" vertex="1" parent="1">
          <mxGeometry x="747" y="255.39999999999998" width="191" height="30" as="geometry" />
        </mxCell>
      </root>
    </mxGraphModel>
  </diagram>
</mxfile>
